<svg id="Layer_1" data-name="Layer 1" xmlns="http://www.w3.org/2000/svg" viewBox="0 0 400 200"><defs><style>.cls-1{fill:#f53e5b;}.cls-2{fill:#fff;}</style></defs><title>semi_icon</title><rect class="cls-1" x="1.06" y="72.6" width="398" height="55" rx="25.36"/><path class="cls-2" d="M168.64,106.65A3.36,3.36,0,0,1,165,103V88.14h2.65v14.71c0,1,.36,1.54,1.43,1.54h1.17v2.26Z"/><path class="cls-2" d="M185.65,105.25a5.36,5.36,0,0,1-4,1.56,5.28,5.28,0,0,1-3.92-1.56c-1.25-1.3-1.56-3-1.56-5.2s.31-3.88,1.56-5.18a5.28,5.28,0,0,1,3.92-1.56,5.36,5.36,0,0,1,4,1.56c1.24,1.3,1.56,3,1.56,5.18S186.89,104,185.65,105.25Zm-2-8.82a2.69,2.69,0,0,0-1.95-.75,2.62,2.62,0,0,0-1.92.75c-.81.81-.91,2.19-.91,3.62s.1,2.8.91,3.61a2.65,2.65,0,0,0,1.92.78,2.72,2.72,0,0,0,1.95-.78c.81-.81.91-2.18.91-3.61S184.45,97.24,183.64,96.43Z"/><path class="cls-2" d="M199.37,112.14a6.07,6.07,0,0,1-4.65-1.75l1.69-1.69a3.7,3.7,0,0,0,2.86,1.17c2.24,0,3.09-1.58,3.09-3.35v-1.69a4.07,4.07,0,0,1-3.4,1.51,4.36,4.36,0,0,1-3.15-1.17c-1.27-1.28-1.48-3.12-1.48-5.36s.21-4.08,1.48-5.35A4.42,4.42,0,0,1,199,93.31a4,4,0,0,1,3.46,1.56v-1.4H205v13.1A5.3,5.3,0,0,1,199.37,112.14Zm.32-16.46c-2.4,0-2.71,2-2.71,4.13s.31,4.14,2.71,4.14,2.67-2.06,2.67-4.14S202.08,95.68,199.69,95.68Z"/><path class="cls-2" d="M213.31,90.87V88.06h2.81v2.81Zm.08,15.78V93.47H216v13.18Z"/><path class="cls-2" d="M232.45,106.65v-8c0-2.06-1.17-2.94-2.66-2.94a2.63,2.63,0,0,0-2.73,2.94v8h-2.65V93.47H227v1.32a4.75,4.75,0,0,1,3.51-1.48,4.55,4.55,0,0,1,3.25,1.2,4.84,4.84,0,0,1,1.33,3.72v8.42Z"/></svg>