<svg id="Layer_1" data-name="Layer 1" xmlns="http://www.w3.org/2000/svg" viewBox="0 0 400 200"><defs><style>.cls-1{fill:#f53e5b;}.cls-2{fill:#fff;}</style></defs><title>semi_icon</title><rect class="cls-1" x="1.06" y="72.6" width="398" height="55" rx="25.36"/><path class="cls-2" d="M175.79,108.44a7.23,7.23,0,0,1-5.54-1.9L172,104.8a5.11,5.11,0,0,0,3.79,1.38c1.61,0,2.89-.57,2.89-1.82,0-.89-.5-1.46-1.77-1.56l-2.11-.18c-2.47-.21-3.9-1.33-3.9-3.64,0-2.58,2.21-4,5-4a7.2,7.2,0,0,1,4.89,1.48l-1.67,1.69a5,5,0,0,0-3.25-1c-1.58,0-2.39.7-2.39,1.69,0,.78.42,1.37,1.82,1.51l2.08.18c2.47.21,3.93,1.38,3.93,3.72C181.28,107,178.94,108.44,175.79,108.44Z"/><path class="cls-2" d="M188.53,102.46c0,2.26,1.2,3.69,3.36,3.69a3.9,3.9,0,0,0,3.19-1.35l1.69,1.59a6.18,6.18,0,0,1-4.94,2c-3.3,0-5.92-1.74-5.92-6.76,0-4.26,2.21-6.73,5.59-6.73,3.53,0,5.59,2.6,5.59,6.34v1.17Zm5.57-3.64a2.72,2.72,0,0,0-2.6-1.66,2.75,2.75,0,0,0-2.63,1.66,4.25,4.25,0,0,0-.34,1.8h5.93A4.24,4.24,0,0,0,194.1,98.82Z"/><path class="cls-2" d="M210.71,108.29v-8c0-2-1.17-2.94-2.65-2.94a2.63,2.63,0,0,0-2.73,2.94v8h-2.65V95.1h2.6v1.33A4.7,4.7,0,0,1,208.79,95,4.59,4.59,0,0,1,212,96.14a4.86,4.86,0,0,1,1.32,3.72v8.43Z"/><path class="cls-2" d="M227.09,108.29v-1.41a4,4,0,0,1-3.48,1.56,4.56,4.56,0,0,1-3.23-1.17c-1.33-1.32-1.48-3.59-1.48-5.59s.15-4.24,1.48-5.56a4.49,4.49,0,0,1,3.2-1.17A4.09,4.09,0,0,1,227,96.43V89.77h2.65v18.52Zm-2.78-11c-2.39,0-2.76,2-2.76,4.37s.37,4.4,2.76,4.4S227,104,227,101.68,226.7,97.31,224.31,97.31Z"/></svg>