<svg id="Layer_1" data-name="Layer 1" xmlns="http://www.w3.org/2000/svg" viewBox="0 0 400 200"><defs><style>.cls-1{fill:#f53e5b;}.cls-2{fill:#fff;}</style></defs><title>semi_icon</title><rect class="cls-1" x="1.06" y="72.6" width="398" height="55" rx="25.36"/><path class="cls-2" d="M159.18,108.32V107a4.7,4.7,0,0,1-3.51,1.48,4.59,4.59,0,0,1-3.25-1.19,4.86,4.86,0,0,1-1.32-3.72V95.13h2.65v8c0,2,1.17,2.94,2.65,2.94a2.63,2.63,0,0,0,2.73-2.94v-8h2.65v13.19Z"/><path class="cls-2" d="M179.46,107.3a4.49,4.49,0,0,1-3.2,1.17,4.09,4.09,0,0,1-3.45-1.5v6.68h-2.66V95.13h2.6v1.41A4.06,4.06,0,0,1,176.24,95a4.56,4.56,0,0,1,3.22,1.17c1.33,1.32,1.48,3.56,1.48,5.56S180.79,106,179.46,107.3Zm-3.9-10c-2.39,0-2.75,2-2.75,4.36s.36,4.4,2.75,4.4,2.73-2.06,2.73-4.4S178,97.35,175.56,97.35Z"/><path class="cls-2" d="M196.26,108.32v-1.41a4.06,4.06,0,0,1-3.49,1.56,4.56,4.56,0,0,1-3.22-1.17c-1.33-1.32-1.48-3.58-1.48-5.59s.15-4.24,1.48-5.56a4.49,4.49,0,0,1,3.2-1.17,4.11,4.11,0,0,1,3.46,1.48V89.8h2.65v18.52Zm-2.78-11c-2.4,0-2.76,2-2.76,4.36s.36,4.4,2.76,4.4,2.73-2.06,2.73-4.4S195.87,97.35,193.48,97.35Z"/><path class="cls-2" d="M214.33,108.32v-1.2a4.34,4.34,0,0,1-3.51,1.35,4.69,4.69,0,0,1-3.54-1.19,4.08,4.08,0,0,1-1-2.84c0-2.21,1.54-3.79,4.55-3.79h3.49v-.94c0-1.66-.84-2.47-2.89-2.47a3.11,3.11,0,0,0-2.89,1.27l-1.74-1.63c1.25-1.46,2.55-1.9,4.73-1.9,3.62,0,5.44,1.53,5.44,4.52v8.82Zm-.05-5.83h-3.1c-1.56,0-2.36.71-2.36,1.9s.75,1.87,2.41,1.87a3.16,3.16,0,0,0,2.47-.75,2.62,2.62,0,0,0,.58-2Z"/><path class="cls-2" d="M229.1,108.32a3.44,3.44,0,0,1-3.62-3.67V97.4H224v-2h1.51v-4h2.65v4h2.55v2h-2.55v7.12a1.35,1.35,0,0,0,1.46,1.54h1.09v2.26Z"/><path class="cls-2" d="M240.1,102.49c0,2.27,1.19,3.69,3.35,3.69a3.94,3.94,0,0,0,3.2-1.35l1.69,1.59a6.19,6.19,0,0,1-4.94,2c-3.3,0-5.93-1.74-5.93-6.76,0-4.26,2.21-6.73,5.59-6.73,3.54,0,5.59,2.6,5.59,6.34v1.17Zm5.56-3.64a2.71,2.71,0,0,0-2.6-1.66,2.75,2.75,0,0,0-2.63,1.66,4.11,4.11,0,0,0-.33,1.8H246A4.1,4.1,0,0,0,245.66,98.85Z"/></svg>