<svg id="Layer_1" data-name="Layer 1" xmlns="http://www.w3.org/2000/svg" viewBox="0 0 200 200"><defs><style>.cls-1{fill:#f53e5b;}.cls-2{fill:#fff;}</style></defs><title>semi_icon</title><rect class="cls-1" x="1.13" y="67.29" width="197.87" height="58.44" rx="18.43"/><path class="cls-2" d="M73.33,106.26v-1.49a4.32,4.32,0,0,1-3.71,1.65,4.86,4.86,0,0,1-3.42-1.24c-1.41-1.41-1.58-3.81-1.58-5.94s.17-4.5,1.58-5.91a4.74,4.74,0,0,1,3.4-1.24,4.31,4.31,0,0,1,3.67,1.57V86.59h2.82v19.67Zm-3-11.66c-2.54,0-2.93,2.15-2.93,4.64s.39,4.67,2.93,4.67,2.9-2.18,2.9-4.67S72.91,94.6,70.37,94.6Z"/><path class="cls-2" d="M94.35,104.77a5.66,5.66,0,0,1-4.2,1.65A5.58,5.58,0,0,1,86,104.77c-1.33-1.39-1.66-3.15-1.66-5.53s.33-4.12,1.66-5.5a5.58,5.58,0,0,1,4.17-1.65,5.66,5.66,0,0,1,4.2,1.65c1.32,1.38,1.66,3.15,1.66,5.5S95.67,103.38,94.35,104.77ZM92.22,95.4a2.86,2.86,0,0,0-2.07-.8,2.83,2.83,0,0,0-2.05.8c-.85.86-1,2.32-1,3.84s.11,3,1,3.84a2.81,2.81,0,0,0,2.05.83,2.84,2.84,0,0,0,2.07-.83c.86-.86,1-2.32,1-3.84S93.08,96.26,92.22,95.4Z"/><path class="cls-2" d="M112.77,106.26V97.72c0-2.18-1.24-3.12-2.81-3.12a2.79,2.79,0,0,0-2.9,3.12v8.54h-2.82v-14H107v1.41a5,5,0,0,1,3.73-1.57,4.79,4.79,0,0,1,3.45,1.27,5.13,5.13,0,0,1,1.41,4v9Z"/><path class="cls-2" d="M126.42,100.07c0,2.4,1.27,3.92,3.56,3.92a4.18,4.18,0,0,0,3.4-1.43l1.8,1.68a6.57,6.57,0,0,1-5.25,2.18c-3.51,0-6.3-1.85-6.3-7.18,0-4.53,2.35-7.15,5.94-7.15,3.76,0,5.94,2.76,5.94,6.74v1.24Zm5.91-3.87a2.88,2.88,0,0,0-2.76-1.77,2.93,2.93,0,0,0-2.79,1.77,4.43,4.43,0,0,0-.36,1.91h6.3A4.42,4.42,0,0,0,132.33,96.2Z"/></svg>