<svg id="Layer_1" data-name="Layer 1" xmlns="http://www.w3.org/2000/svg" viewBox="0 0 200 200"><defs><style>.cls-1{fill:#f53e5b;}.cls-2{fill:#c3c3c3;}.cls-3{fill:#77777f;}.cls-4{fill:#fff;}.cls-5{fill:#4f4e5c;}</style></defs><title>semi_icon</title><path class="cls-1" d="M187.68,184.44l-51.82-41.16,7.09-8.86,51.82,41.16Z"/><path class="cls-2" d="M37.71,60.9C19,60.9,3.3,76.21,3.3,94.93v11.34H71.74V94.93A34.13,34.13,0,0,0,37.71,60.9Z"/><path class="cls-3" d="M71.74,94.93v11.34h-34V60.9A34.13,34.13,0,0,1,71.74,94.93Z"/><circle class="cls-2" cx="37.71" cy="38.21" r="22.69"/><path class="cls-3" d="M37.71,60.9V15.52a22.69,22.69,0,0,1,0,45.38Z"/><path class="cls-2" d="M162.49,60.9a34.13,34.13,0,0,0-34,34v11.34H196.9V94.93C196.9,76.21,181.21,60.9,162.49,60.9Z"/><path class="cls-3" d="M196.9,94.93v11.34H162.49V60.9C181.21,60.9,196.9,76.21,196.9,94.93Z"/><circle class="cls-2" cx="162.49" cy="38.21" r="22.69"/><path class="cls-3" d="M162.49,60.9V15.52a22.69,22.69,0,0,1,0,45.38Z"/><circle class="cls-4" cx="100.1" cy="106.27" r="56.72"/><path class="cls-4" d="M156.82,106.27A56.74,56.74,0,0,1,100.1,163V49.56A56.73,56.73,0,0,1,156.82,106.27Z"/><path class="cls-5" d="M100.1,60.9a45.36,45.36,0,0,0-45.38,45.37,44.7,44.7,0,0,0,14,32.56h62.84a44.7,44.7,0,0,0,14-32.56A45.36,45.36,0,0,0,100.1,60.9Z"/><path class="cls-1" d="M100.1,117.62a34,34,0,0,0-31.42,21.21,44.91,44.91,0,0,0,62.84,0A34,34,0,0,0,100.1,117.62Z"/><circle class="cls-1" cx="100.1" cy="100.6" r="17.02"/></svg>