<svg id="Layer_1" data-name="Layer 1" xmlns="http://www.w3.org/2000/svg" viewBox="0 0 200 200"><defs><style>.cls-1{fill:#fff;}.cls-2{fill:#f53e5b;}</style></defs><title>semi_icon</title><path class="cls-1" d="M185.11,83.1H99.41v33.8h85.7A12.89,12.89,0,0,0,198,104V96A12.89,12.89,0,0,0,185.11,83.1Z"/><path class="cls-2" d="M14.89,83.1A12.89,12.89,0,0,0,2,96v8A12.89,12.89,0,0,0,14.89,116.9H99.41V83.1Z"/><path class="cls-2" d="M115.22,97.16a1.81,1.81,0,0,0-1.5-.63,2.11,2.11,0,0,0-2.08,2.32v5.32h-1.27V95.5h1.27v1.06a2.92,2.92,0,0,1,2.43-1.16,2.66,2.66,0,0,1,2.08.81Z"/><path class="cls-2" d="M120.09,100.17c0,1.9.9,3,2.56,3a2.87,2.87,0,0,0,2.27-1l.86.75a4,4,0,0,1-3.17,1.34c-2.29,0-3.78-1.37-3.78-4.44,0-2.79,1.35-4.43,3.55-4.43s3.56,1.62,3.56,4.19v.58Zm4.32-2.39a2.22,2.22,0,0,0-4,0,3.55,3.55,0,0,0-.27,1.44h4.58A3.56,3.56,0,0,0,124.41,97.78Z"/><path class="cls-2" d="M133.53,108.14a3.8,3.8,0,0,1-2.94-1.16l.82-.81a2.67,2.67,0,0,0,2.08.87c1.67,0,2.38-1.18,2.38-2.66V103a2.8,2.8,0,0,1-2.43,1.13,3,3,0,0,1-2.1-.78,5,5,0,0,1-1.05-3.61,5,5,0,0,1,1.05-3.6,3,3,0,0,1,2.12-.76,2.7,2.7,0,0,1,2.42,1.13v-1h1.26v8.93A3.44,3.44,0,0,1,133.53,108.14Zm.19-11.61c-1.88,0-2.17,1.61-2.17,3.23s.29,3.24,2.17,3.24,2.15-1.62,2.15-3.24S135.6,96.53,133.72,96.53Z"/><path class="cls-2" d="M142.35,93V91.61h1.42V93Zm.07,11.13V95.5h1.26v8.67Z"/><path class="cls-2" d="M151.71,104.27a4.74,4.74,0,0,1-3.55-1.25l.84-.84a3.55,3.55,0,0,0,2.69,1c1.43,0,2.31-.51,2.31-1.53,0-.76-.44-1.18-1.44-1.27l-1.43-.12c-1.69-.14-2.59-.9-2.59-2.33,0-1.58,1.34-2.53,3.19-2.53a5,5,0,0,1,3.12.93l-.83.83a3.68,3.68,0,0,0-2.31-.69c-1.27,0-1.93.55-1.93,1.43s.42,1.18,1.51,1.27l1.39.12c1.51.14,2.55.72,2.55,2.34S153.81,104.27,151.71,104.27Z"/><path class="cls-2" d="M162.08,104.17a2.13,2.13,0,0,1-2.22-2.33V96.53h-1.09v-1h1.09V92.85h1.27v2.71H163v1h-1.85v5.28c0,.79.37,1.26,1.18,1.26H163v1.1Z"/><path class="cls-2" d="M168.26,100.17c0,1.9.89,3,2.55,3a2.87,2.87,0,0,0,2.27-1l.86.75a4,4,0,0,1-3.17,1.34c-2.28,0-3.78-1.37-3.78-4.44,0-2.79,1.35-4.43,3.56-4.43s3.55,1.62,3.55,4.19v.58Zm4.31-2.39a2.22,2.22,0,0,0-4,0,3.56,3.56,0,0,0-.26,1.44h4.57A3.56,3.56,0,0,0,172.57,97.78Z"/><path class="cls-2" d="M183.75,97.16a1.81,1.81,0,0,0-1.5-.63,2.11,2.11,0,0,0-2.07,2.32v5.32h-1.27V95.5h1.27v1.06a2.89,2.89,0,0,1,2.42-1.16,2.65,2.65,0,0,1,2.08.81Z"/><path class="cls-1" d="M31.56,104.17a2.07,2.07,0,0,1-2.2-2.31V91.63h1.27v10.18c0,.84.28,1.26,1.16,1.26h.68v1.1Z"/><path class="cls-1" d="M41.94,103.29a3.63,3.63,0,0,1-5,0,6.16,6.16,0,0,1,0-6.91,3.63,3.63,0,0,1,5,0,6.16,6.16,0,0,1,0,6.91Zm-.89-6.13a2.21,2.21,0,0,0-1.59-.63,2.18,2.18,0,0,0-1.57.63,5.46,5.46,0,0,0,0,5.35,2.18,2.18,0,0,0,1.57.63,2.21,2.21,0,0,0,1.59-.63,5.6,5.6,0,0,0,0-5.35Z"/><path class="cls-1" d="M50.61,108.14A3.8,3.8,0,0,1,47.67,107l.82-.81a2.67,2.67,0,0,0,2.08.87c1.67,0,2.38-1.18,2.38-2.66V103a2.8,2.8,0,0,1-2.43,1.13,3,3,0,0,1-2.1-.78,5,5,0,0,1-1.05-3.61,5,5,0,0,1,1.05-3.6,3,3,0,0,1,2.12-.76A2.73,2.73,0,0,1,53,96.53v-1h1.25v8.93A3.44,3.44,0,0,1,50.61,108.14Zm.19-11.61c-1.88,0-2.16,1.61-2.16,3.23S48.92,103,50.8,103,53,101.38,53,99.76,52.68,96.53,50.8,96.53Z"/><path class="cls-1" d="M59.43,93V91.61h1.42V93Zm.07,11.13V95.5h1.27v8.67Z"/><path class="cls-1" d="M71.61,104.17V98.83a2,2,0,0,0-2.13-2.3,2,2,0,0,0-2.15,2.3v5.34H66.06V95.5h1.27v1a3.11,3.11,0,0,1,2.43-1.06,3,3,0,0,1,2.22.81,3.19,3.19,0,0,1,.9,2.41v5.55Z"/></svg>