<svg id="Layer_1" data-name="Layer 1" xmlns="http://www.w3.org/2000/svg" viewBox="0 0 200 200"><defs><style>.cls-1{fill:#fff;}.cls-2{fill:#f53e5b;}</style></defs><title>semi_icon</title><path class="cls-1" d="M7.93,114.71a7,7,0,0,1-5.38-2.13l1.51-1.48a4.9,4.9,0,0,0,3.81,1.58c3.06,0,4.35-2.16,4.35-4.87v-2.48a5.1,5.1,0,0,1-4.45,2.07A5.46,5.46,0,0,1,3.93,106C2.35,104.4,2,102,2,99.37s.35-5,1.93-6.61A5.57,5.57,0,0,1,7.8,91.38a5,5,0,0,1,4.45,2.06V91.57h2.29v16.34C14.54,111.84,12.09,114.71,7.93,114.71Zm.35-21.27c-3.44,0-4,3-4,5.93s.52,5.93,4,5.93,3.94-3,3.94-5.93S11.73,93.44,8.28,93.44Z"/><path class="cls-1" d="M33.75,105.82a6.26,6.26,0,0,1-4.55,1.8,6.24,6.24,0,0,1-4.54-1.8c-1.61-1.65-1.94-3.87-1.94-6.32s.33-4.67,1.94-6.32a6.24,6.24,0,0,1,4.54-1.8,6.26,6.26,0,0,1,4.55,1.8c1.61,1.65,1.93,3.87,1.93,6.32S35.36,104.17,33.75,105.82ZM32.1,94.6a4.17,4.17,0,0,0-5.77,0c-1.16,1.16-1.28,3.13-1.28,4.9s.12,3.74,1.28,4.9a4.17,4.17,0,0,0,5.77,0c1.16-1.16,1.26-3.13,1.26-4.9S33.26,95.76,32.1,94.6Z"/><path class="cls-2" d="M43.26,87.77V84.35h4.28v3.42Zm.06,19.66V90.64h4.19v16.79Z"/><path class="cls-1" d="M66.11,107.43V97.66c0-2.8-1.52-4.22-3.9-4.22s-3.93,1.45-3.93,4.22v9.77H56V91.57h2.32v1.74a5.69,5.69,0,0,1,4.44-1.93,5.53,5.53,0,0,1,4.06,1.48,5.87,5.87,0,0,1,1.65,4.42v10.15Z"/><path class="cls-1" d="M81.74,107.43c-2.71,0-4.06-1.9-4.06-4.26V93.44h-2V91.67h2v-5H80v5h3.38v1.77H80v9.67c0,1.45.68,2.32,2.16,2.32h1.22v2Z"/><path class="cls-1" d="M92.41,100.11c0,3.48,1.64,5.48,4.67,5.48a5.23,5.23,0,0,0,4.16-1.8l1.58,1.38a7.27,7.27,0,0,1-5.8,2.45c-4.19,0-6.93-2.51-6.93-8.12,0-5.13,2.48-8.12,6.51-8.12s6.51,3,6.51,7.67v1.06Zm7.89-4.38a4.07,4.07,0,0,0-7.41,0,6.66,6.66,0,0,0-.48,2.64h8.38A6.64,6.64,0,0,0,100.3,95.73Z"/><path class="cls-1" d="M120.13,94.6a3.32,3.32,0,0,0-2.74-1.16c-2.32,0-3.81,1.84-3.81,4.25v9.74h-2.32V91.57h2.32V93.5A5.33,5.33,0,0,1,118,91.38a4.85,4.85,0,0,1,3.8,1.48Z"/><path class="cls-1" d="M133.37,107.43h-2.06l-5.8-15.86H128l4.32,12.73,4.35-12.73h2.52Z"/><path class="cls-2" d="M145.07,87.77V84.35h4.29v3.42Zm.07,19.66V90.64h4.19v16.79Z"/><path class="cls-1" d="M159.22,100.11c0,3.48,1.65,5.48,4.68,5.48a5.21,5.21,0,0,0,4.15-1.8l1.58,1.38a7.26,7.26,0,0,1-5.8,2.45c-4.19,0-6.93-2.51-6.93-8.12,0-5.13,2.48-8.12,6.51-8.12s6.51,3,6.51,7.67v1.06Zm7.9-4.38a4.07,4.07,0,0,0-7.41,0,6.64,6.64,0,0,0-.49,2.64h8.38A6.66,6.66,0,0,0,167.12,95.73Z"/><path class="cls-1" d="M193,107.43h-2.15l-4.16-12.31-4.13,12.31H180.4l-5-15.86h2.52l3.64,12.73,4.16-12.73h2l4.19,12.73,3.61-12.73H198Z"/></svg>