<svg id="Layer_1" data-name="Layer 1" xmlns="http://www.w3.org/2000/svg" viewBox="0 0 200 200"><defs><style>.cls-1{fill:#f53e5b;}.cls-2{fill:#fff;}</style></defs><title>semi_icon</title><rect class="cls-1" x="2.21" y="60.72" width="195.69" height="78.28" rx="19.6"/><path class="cls-2" d="M38.05,114.94c-3.51,0-5.1-2.28-5.1-5.34V85.92h2.94v23.56c0,2,.65,2.94,2.69,2.94h1.59v2.52Z"/><path class="cls-2" d="M62.1,112.91a8.39,8.39,0,0,1-11.5,0c-2-2.08-2.44-4.9-2.44-8s.4-5.92,2.44-8a8.39,8.39,0,0,1,11.5,0c2,2.08,2.44,4.9,2.44,8S64.14,110.83,62.1,112.91ZM60,98.72a5.14,5.14,0,0,0-3.67-1.47,5,5,0,0,0-3.63,1.47c-1.47,1.47-1.63,4-1.63,6.2s.16,4.73,1.63,6.19a5,5,0,0,0,3.63,1.47A5.14,5.14,0,0,0,60,111.11c1.47-1.46,1.59-4,1.59-6.19S61.49,100.19,60,98.72Z"/><path class="cls-2" d="M82.16,124.16a8.87,8.87,0,0,1-6.81-2.69l1.92-1.88a6.15,6.15,0,0,0,4.81,2c3.87,0,5.5-2.73,5.5-6.16v-3.14A6.46,6.46,0,0,1,82,114.9a6.86,6.86,0,0,1-4.84-1.79c-2-2-2.45-5.1-2.45-8.36s.45-6.36,2.45-8.35A6.92,6.92,0,0,1,82,94.64a6.31,6.31,0,0,1,5.62,2.61V94.89h2.9v20.67C90.52,120.53,87.42,124.16,82.16,124.16Zm.45-26.91c-4.36,0-5,3.75-5,7.5s.66,7.5,5,7.5,5-3.75,5-7.5S87,97.25,82.61,97.25Z"/><path class="cls-2" d="M115.63,112.91a8.38,8.38,0,0,1-11.49,0c-2-2.08-2.45-4.9-2.45-8s.41-5.92,2.45-8a8.38,8.38,0,0,1,11.49,0c2,2.08,2.45,4.9,2.45,8S117.67,110.83,115.63,112.91Zm-2.08-14.19a5.14,5.14,0,0,0-3.67-1.47,5.06,5.06,0,0,0-3.63,1.47c-1.46,1.47-1.63,4-1.63,6.2s.17,4.73,1.63,6.19a5.06,5.06,0,0,0,3.63,1.47,5.14,5.14,0,0,0,3.67-1.47c1.47-1.46,1.59-4,1.59-6.19S115,100.19,113.55,98.72Z"/><path class="cls-2" d="M141.93,114.94V112.7a7.37,7.37,0,0,1-5.67,2.49,7.11,7.11,0,0,1-5.18-1.88,7.45,7.45,0,0,1-2-5.62V94.89H132v12.35c0,3.55,1.87,5.34,4.89,5.34s5-1.83,5-5.34V94.89h2.93v20Z"/><path class="cls-2" d="M162.68,114.94c-3.43,0-5.14-2.4-5.14-5.38V97.25H155V95h2.53V88.73h2.94V95h4.27v2.24h-4.27v12.23c0,1.84.85,2.94,2.73,2.94h1.54v2.52Z"/></svg>