<svg id="Layer_1" data-name="Layer 1" xmlns="http://www.w3.org/2000/svg" viewBox="0 0 200 200"><defs><style>.cls-1{fill:#f53e5b;}.cls-2{fill:#fff;}</style></defs><title>semi_icon</title><rect class="cls-1" x="2.17" y="61.21" width="195.78" height="78.31" rx="19.61"/><path class="cls-2" d="M54.33,115.46c-3.5,0-5.09-2.29-5.09-5.35V86.42h2.93V110c0,2,.65,2.94,2.69,2.94h1.59v2.53Z"/><path class="cls-2" d="M78.39,113.42a8.39,8.39,0,0,1-11.5,0c-2-2.08-2.44-4.9-2.44-8s.4-5.91,2.44-8a8.39,8.39,0,0,1,11.5,0c2,2.08,2.45,4.89,2.45,8S80.43,111.34,78.39,113.42Zm-2.07-14.2a5.19,5.19,0,0,0-3.68-1.46A5.09,5.09,0,0,0,69,99.22c-1.47,1.47-1.63,4-1.63,6.2s.16,4.74,1.63,6.2a5.06,5.06,0,0,0,3.63,1.47,5.16,5.16,0,0,0,3.68-1.47c1.46-1.46,1.59-4,1.59-6.2S77.78,100.69,76.32,99.22Z"/><path class="cls-2" d="M98.46,124.67A8.87,8.87,0,0,1,91.65,122l1.92-1.87a6.19,6.19,0,0,0,4.81,2c3.88,0,5.51-2.73,5.51-6.15v-3.14a6.47,6.47,0,0,1-5.63,2.61,6.89,6.89,0,0,1-4.85-1.8c-2-2-2.45-5.1-2.45-8.36s.45-6.36,2.45-8.36a7,7,0,0,1,4.89-1.75,6.33,6.33,0,0,1,5.63,2.61V95.39h2.9v20.68C106.83,121,103.73,124.67,98.46,124.67Zm.45-26.91c-4.36,0-5,3.75-5,7.5s.65,7.51,5,7.51,5-3.76,5-7.51S103.28,97.76,98.91,97.76Z"/><path class="cls-2" d="M118.9,89.68v-3.3h3.3v3.3Zm.16,25.78V95.39H122v20.07Z"/><path class="cls-2" d="M147.13,115.46V103.1c0-3.55-1.92-5.34-4.94-5.34s-5,1.83-5,5.34v12.36h-2.93V95.39h2.93v2.2a7.24,7.24,0,0,1,5.63-2.44A7,7,0,0,1,148,97a7.42,7.42,0,0,1,2.08,5.59v12.85Z"/></svg>