<svg id="Layer_1" data-name="Layer 1" xmlns="http://www.w3.org/2000/svg" viewBox="0 0 200 200"><defs><style>.cls-1{fill:#f53e5b;}.cls-2{fill:#fff;}</style></defs><title>semi_icon</title><path class="cls-1" d="M185.11,74.19H99.41v51.74h85.7c7.12,0,12.89-8.83,12.89-19.73V93.92C198,83,192.23,74.19,185.11,74.19Z"/><path class="cls-2" d="M14.89,74.19C7.77,74.19,2,83,2,93.92V106.2c0,10.9,5.77,19.73,12.89,19.73H99.41V74.19Z"/><path class="cls-2" d="M140.47,106.44V98.27c0-2.34-1.27-3.53-3.26-3.53s-3.29,1.21-3.29,3.53v8.17H132V93.18h1.94v1.45A4.77,4.77,0,0,1,137.64,93,4.65,4.65,0,0,1,141,94.25a4.89,4.89,0,0,1,1.38,3.7v8.49Z"/><path class="cls-2" d="M158.88,105.09a5.54,5.54,0,0,1-7.6,0c-1.35-1.38-1.62-3.23-1.62-5.28s.27-3.91,1.62-5.28a5.54,5.54,0,0,1,7.6,0c1.34,1.37,1.61,3.23,1.61,5.28S160.22,103.71,158.88,105.09Zm-1.38-9.38a3.39,3.39,0,0,0-2.42-1,3.33,3.33,0,0,0-2.4,1c-1,1-1.08,2.62-1.08,4.1s.11,3.12,1.08,4.09a3.33,3.33,0,0,0,2.4,1,3.39,3.39,0,0,0,2.42-1c1-1,1.05-2.61,1.05-4.09S158.47,96.68,157.5,95.71Z"/><path class="cls-1" d="M34.6,109.55a3.71,3.71,0,0,1-.94,1.56,3.61,3.61,0,0,1-2.59.92h-.83V110.3h.59c1.35,0,1.75-.43,2.18-1.64l1-2.59-4.77-13h2.1l3.64,10.65,3.61-10.65h2.1Z"/><path class="cls-1" d="M47.54,100.22c0,2.92,1.37,4.59,3.91,4.59a4.35,4.35,0,0,0,3.47-1.51l1.33,1.16a6.11,6.11,0,0,1-4.86,2c-3.5,0-5.79-2.1-5.79-6.79,0-4.28,2.07-6.79,5.44-6.79s5.45,2.48,5.45,6.41v.89Zm6.6-3.66a3.41,3.41,0,0,0-6.2,0,5.63,5.63,0,0,0-.4,2.21h7A5.62,5.62,0,0,0,54.14,96.56Z"/><path class="cls-1" d="M68,106.5a7.3,7.3,0,0,1-5.44-1.91l1.29-1.29A5.44,5.44,0,0,0,68,104.83c2.18,0,3.53-.78,3.53-2.34,0-1.16-.68-1.81-2.21-1.94l-2.19-.19c-2.58-.22-4-1.37-4-3.56,0-2.42,2-3.88,4.88-3.88a7.5,7.5,0,0,1,4.77,1.43l-1.27,1.27A5.62,5.62,0,0,0,68,94.57c-1.94,0-3,.83-3,2.18,0,1.13.65,1.8,2.32,1.94l2.13.19c2.31.21,3.9,1.1,3.9,3.58S71.23,106.5,68,106.5Z"/></svg>