<svg id="Layer_1" data-name="Layer 1" xmlns="http://www.w3.org/2000/svg" viewBox="0 0 200 200"><defs><style>.cls-1{fill:#f53e5b;}.cls-2{fill:#fff;}</style></defs><title>semi_icon</title><circle class="cls-1" cx="100" cy="100" r="97"/><path class="cls-2" d="M120.4,93.94,110,108.49a13.74,13.74,0,0,0-2.42,7.27v4H93.87v-4.72c0-5.52,1.35-9,4.58-13.33L109,87.61c2.42-3.23,4.17-6.47,4.17-10.24,0-7.54-5.39-13.46-13.2-13.46-8.35,0-13.06,6.33-13.06,13.6H73.13c0-15.22,11.58-25.86,26.8-25.86,14.68,0,26.94,9.83,26.94,25.72C126.87,83.84,124,89,120.4,93.94ZM93.06,148.35V133.67h15.22v14.68Z"/></svg>