<svg id="Layer_1" data-name="Layer 1" xmlns="http://www.w3.org/2000/svg" viewBox="0 0 200 200"><defs><style>.cls-1{fill:#fff;}.cls-2{fill:#f53e5b;}</style></defs><title>semi_icon</title><path class="cls-1" d="M185.11,74.29H99.41V126h85.7c7.12,0,12.89-8.84,12.89-19.74V94C198,83.13,192.23,74.29,185.11,74.29Z"/><path class="cls-2" d="M14.89,74.29C7.77,74.29,2,83.13,2,94V106.3C2,117.2,7.77,126,14.89,126H99.41V74.29Z"/><path class="cls-2" d="M140.47,106.54V98.37c0-2.34-1.27-3.53-3.26-3.53s-3.29,1.22-3.29,3.53v8.17H132V93.28h1.94v1.46a4.78,4.78,0,0,1,3.72-1.62A4.61,4.61,0,0,1,141,94.36a4.87,4.87,0,0,1,1.38,3.69v8.49Z"/><path class="cls-2" d="M158.88,105.19a5.54,5.54,0,0,1-7.6,0c-1.35-1.37-1.62-3.23-1.62-5.28s.27-3.91,1.62-5.28a5.54,5.54,0,0,1,7.6,0c1.34,1.37,1.61,3.23,1.61,5.28S160.22,103.82,158.88,105.19Zm-1.38-9.38a3.39,3.39,0,0,0-2.42-1,3.33,3.33,0,0,0-2.4,1c-1,1-1.08,2.62-1.08,4.1s.11,3.13,1.08,4.1a3.33,3.33,0,0,0,2.4,1,3.39,3.39,0,0,0,2.42-1c1-1,1.05-2.62,1.05-4.1S158.47,96.78,157.5,95.81Z"/><path class="cls-1" d="M34.6,109.65a3.76,3.76,0,0,1-.94,1.57,3.65,3.65,0,0,1-2.59.91h-.83v-1.72h.59c1.35,0,1.75-.43,2.18-1.65l1-2.58-4.77-13h2.1l3.64,10.64,3.61-10.64h2.1Z"/><path class="cls-1" d="M47.54,100.33c0,2.91,1.37,4.58,3.91,4.58a4.35,4.35,0,0,0,3.47-1.51l1.33,1.16a6.08,6.08,0,0,1-4.86,2c-3.5,0-5.79-2.1-5.79-6.79,0-4.29,2.07-6.8,5.44-6.8s5.45,2.48,5.45,6.42v.89Zm6.6-3.67a3.41,3.41,0,0,0-6.2,0,5.63,5.63,0,0,0-.4,2.21h7A5.62,5.62,0,0,0,54.14,96.66Z"/><path class="cls-1" d="M68,106.61a7.27,7.27,0,0,1-5.44-1.92l1.29-1.29A5.41,5.41,0,0,0,68,104.94c2.18,0,3.53-.79,3.53-2.35,0-1.16-.68-1.8-2.21-1.94l-2.19-.19c-2.58-.21-4-1.37-4-3.55,0-2.43,2-3.89,4.88-3.89a7.5,7.5,0,0,1,4.77,1.43l-1.27,1.27a5.62,5.62,0,0,0-3.53-1c-1.94,0-3,.83-3,2.18,0,1.13.65,1.81,2.32,1.94l2.13.19c2.31.22,3.9,1.11,3.9,3.58S71.23,106.61,68,106.61Z"/></svg>