<svg id="Layer_1" data-name="Layer 1" xmlns="http://www.w3.org/2000/svg" viewBox="0 0 400 200"><defs><style>.cls-1{fill:#f53e5b;}.cls-2{fill:#fff;}</style></defs><title>semi_icon</title><rect class="cls-1" x="1.06" y="72.6" width="398" height="55" rx="25.36"/><path class="cls-2" d="M180.2,97.43v10.92h-2.65V97.43H176v-2h1.51v-2a3.44,3.44,0,0,1,3.62-3.67h1.66V92h-1.17a1.34,1.34,0,0,0-1.46,1.54V95.4h2.63v2Z"/><path class="cls-2" d="M187.67,92.57V89.76h2.8v2.81Zm.07,15.78V95.17h2.65v13.18Z"/><path class="cls-2" d="M204.72,108.35v-8c0-2.06-1.17-2.94-2.65-2.94a2.63,2.63,0,0,0-2.73,2.94v8h-2.65V95.17h2.6V96.5A4.71,4.71,0,0,1,202.8,95a4.59,4.59,0,0,1,3.25,1.2,4.87,4.87,0,0,1,1.33,3.72v8.42Z"/><path class="cls-2" d="M221.1,108.35V107a4.07,4.07,0,0,1-3.48,1.56,4.56,4.56,0,0,1-3.23-1.17c-1.32-1.33-1.48-3.59-1.48-5.59s.16-4.24,1.48-5.57a4.55,4.55,0,0,1,3.2-1.17,4.06,4.06,0,0,1,3.46,1.49V89.84h2.65v18.51Zm-2.78-11c-2.39,0-2.76,2-2.76,4.37s.37,4.39,2.76,4.39,2.73-2,2.73-4.39S220.71,97.38,218.32,97.38Z"/></svg>