<svg id="Layer_1" data-name="Layer 1" xmlns="http://www.w3.org/2000/svg" viewBox="0 0 400 200"><defs><style>.cls-1{fill:#f53e5b;}.cls-2{fill:#fff;}</style></defs><title>semi_icon</title><rect class="cls-1" x="1.06" y="72.6" width="398" height="55" rx="25.36"/><path class="cls-2" d="M178.43,108.33v-8c0-2.06-1.17-2.94-2.65-2.94a2.62,2.62,0,0,0-2.73,2.94v8h-2.66V95.15H173v1.32A4.75,4.75,0,0,1,176.5,95a4.58,4.58,0,0,1,3.26,1.2,4.85,4.85,0,0,1,1.32,3.72v8.42Z"/><path class="cls-2" d="M191.27,102.51c0,2.26,1.2,3.69,3.36,3.69a3.93,3.93,0,0,0,3.19-1.35l1.7,1.58a6.19,6.19,0,0,1-5,2.06c-3.3,0-5.92-1.75-5.92-6.76,0-4.27,2.21-6.74,5.59-6.74,3.53,0,5.59,2.6,5.59,6.35v1.17Zm5.57-3.64a2.73,2.73,0,0,0-2.6-1.67,2.76,2.76,0,0,0-2.63,1.67,4.2,4.2,0,0,0-.34,1.79h5.93A4.2,4.2,0,0,0,196.84,98.87Z"/><path class="cls-2" d="M214.54,108.33l-2.76-4.5-2.78,4.5h-3.2l4.53-6.73L206,95.15h3.2l2.6,4.29,2.58-4.29h3.2l-4.32,6.45,4.5,6.73Z"/><path class="cls-2" d="M228.5,108.33a3.43,3.43,0,0,1-3.61-3.67V97.41h-1.51v-2h1.51v-4h2.65v4h2.55v2h-2.55v7.12a1.34,1.34,0,0,0,1.46,1.54h1.09v2.26Z"/></svg>