<svg id="Layer_1" data-name="Layer 1" xmlns="http://www.w3.org/2000/svg" viewBox="0 0 400 200"><defs><style>.cls-1{fill:#f53e5b;}.cls-2{fill:#fff;}</style></defs><title>semi_icon</title><rect class="cls-1" x="1.06" y="72.6" width="398" height="55" rx="25.36"/><path class="cls-2" d="M150.33,108.16c-3,0-5.87-1.82-5.87-6.76s2.91-6.74,5.87-6.74a5.42,5.42,0,0,1,4.35,1.85l-1.82,1.77A3.1,3.1,0,0,0,150.33,97a3,3,0,0,0-2.44,1.17,4.89,4.89,0,0,0-.78,3.2,5,5,0,0,0,.78,3.22,3,3,0,0,0,2.44,1.17,3.1,3.1,0,0,0,2.53-1.25l1.82,1.75A5.47,5.47,0,0,1,150.33,108.16Z"/><path class="cls-2" d="M170.25,106.6a5.36,5.36,0,0,1-3.95,1.56,5.29,5.29,0,0,1-3.93-1.56c-1.25-1.3-1.56-3-1.56-5.2s.31-3.88,1.56-5.18a5.29,5.29,0,0,1,3.93-1.56,5.36,5.36,0,0,1,3.95,1.56c1.25,1.3,1.56,3,1.56,5.18S171.5,105.3,170.25,106.6Zm-2-8.82A2.71,2.71,0,0,0,166.3,97a2.66,2.66,0,0,0-1.93.75c-.8.81-.91,2.19-.91,3.62s.11,2.81.91,3.61a2.65,2.65,0,0,0,1.93.78,2.69,2.69,0,0,0,1.95-.78c.8-.8.91-2.18.91-3.61S169.05,98.59,168.25,97.78Z"/><path class="cls-2" d="M187.59,108v-8c0-2.06-1.17-2.94-2.65-2.94a2.63,2.63,0,0,0-2.73,2.94v8h-2.65V94.82h2.6v1.33a4.71,4.71,0,0,1,3.51-1.49,4.59,4.59,0,0,1,3.25,1.2,4.86,4.86,0,0,1,1.32,3.72V108Z"/><path class="cls-2" d="M201.55,97.08V108H198.9V97.08h-1.51v-2h1.51V93a3.43,3.43,0,0,1,3.61-3.67h1.67v2.26H203a1.34,1.34,0,0,0-1.46,1.54v1.89h2.63v2Z"/><path class="cls-2" d="M211.09,92.22V89.41h2.81v2.81Zm.08,15.78V94.82h2.65V108Z"/><path class="cls-2" d="M229.45,97.91a2.48,2.48,0,0,0-2-.88,2.7,2.7,0,0,0-2.62,3v8H222.2V94.82h2.59v1.43a4.38,4.38,0,0,1,3.51-1.59,4.08,4.08,0,0,1,3.15,1.25Z"/><path class="cls-2" d="M253.84,108v-8c0-2.06-1.17-2.94-2.65-2.94a2.62,2.62,0,0,0-2.74,2.81V108H245.8v-8c0-2.06-1.17-2.94-2.65-2.94a2.63,2.63,0,0,0-2.73,2.94v8h-2.65V94.82h2.6v1.33a4.74,4.74,0,0,1,3.51-1.49,4.19,4.19,0,0,1,3.74,1.93,5,5,0,0,1,4.14-1.93,4.8,4.8,0,0,1,3.33,1.2,4.92,4.92,0,0,1,1.4,3.72V108Z"/></svg>