<svg id="Layer_1" data-name="Layer 1" xmlns="http://www.w3.org/2000/svg" viewBox="0 0 400 200"><defs><style>.cls-1{fill:#f53e5b;}.cls-2{fill:#fff;}</style></defs><title>semi_icon</title><rect class="cls-1" x="1.06" y="72.6" width="398" height="55" rx="25.36"/><path class="cls-2" d="M147.16,97.58a2.48,2.48,0,0,0-2-.88,2.71,2.71,0,0,0-2.63,3v8H139.9V94.49h2.6v1.43A4.41,4.41,0,0,1,146,94.33a4.08,4.08,0,0,1,3.15,1.25Z"/><path class="cls-2" d="M156.62,101.85c0,2.26,1.2,3.69,3.36,3.69a3.93,3.93,0,0,0,3.19-1.35l1.69,1.59a6.18,6.18,0,0,1-4.94,2c-3.3,0-5.93-1.74-5.93-6.76,0-4.27,2.22-6.74,5.6-6.74,3.53,0,5.59,2.6,5.59,6.35v1.17Zm5.56-3.64a2.71,2.71,0,0,0-2.59-1.67A2.76,2.76,0,0,0,157,98.21a4.24,4.24,0,0,0-.34,1.79h5.93A4.08,4.08,0,0,0,162.18,98.21Z"/><path class="cls-2" d="M177.27,113.16a6.11,6.11,0,0,1-4.66-1.74l1.69-1.69a3.7,3.7,0,0,0,2.86,1.17c2.24,0,3.1-1.59,3.1-3.36v-1.69a4.07,4.07,0,0,1-3.41,1.51,4.36,4.36,0,0,1-3.15-1.17c-1.27-1.27-1.48-3.12-1.48-5.36s.21-4.08,1.48-5.35a4.43,4.43,0,0,1,3.18-1.15,4,4,0,0,1,3.45,1.57V94.49h2.58v13.1A5.29,5.29,0,0,1,177.27,113.16Zm.31-16.46c-2.4,0-2.71,2-2.71,4.13s.31,4.14,2.71,4.14,2.68-2.06,2.68-4.14S180,96.7,177.58,96.7Z"/><path class="cls-2" d="M191.2,91.89V89.08H194v2.81Zm.08,15.78V94.49h2.65v13.18Z"/><path class="cls-2" d="M206.56,107.83a7.22,7.22,0,0,1-5.53-1.9l1.74-1.74a5.12,5.12,0,0,0,3.79,1.38c1.62,0,2.89-.58,2.89-1.82,0-.89-.49-1.46-1.77-1.56l-2.1-.19c-2.47-.2-3.9-1.32-3.9-3.63,0-2.58,2.21-4,5-4a7.21,7.21,0,0,1,4.89,1.49l-1.66,1.69a5,5,0,0,0-3.25-1c-1.59,0-2.39.71-2.39,1.7,0,.77.41,1.37,1.82,1.5l2.08.18c2.47.21,3.92,1.38,3.92,3.72C212.05,106.4,209.71,107.83,206.56,107.83Z"/><path class="cls-2" d="M223.1,107.67a3.42,3.42,0,0,1-3.61-3.66V96.75H218v-2h1.51v-4h2.65v4h2.55v2h-2.55v7.13a1.34,1.34,0,0,0,1.46,1.53h1.09v2.26Z"/><path class="cls-2" d="M234.1,101.85c0,2.26,1.2,3.69,3.35,3.69a3.94,3.94,0,0,0,3.2-1.35l1.69,1.59a6.18,6.18,0,0,1-4.94,2c-3.3,0-5.93-1.74-5.93-6.76,0-4.27,2.21-6.74,5.59-6.74,3.54,0,5.59,2.6,5.59,6.35v1.17Zm5.56-3.64a2.71,2.71,0,0,0-2.6-1.67,2.75,2.75,0,0,0-2.62,1.67,4.24,4.24,0,0,0-.34,1.79H240A4.23,4.23,0,0,0,239.66,98.21Z"/><path class="cls-2" d="M257.58,97.58a2.48,2.48,0,0,0-2-.88,2.7,2.7,0,0,0-2.62,3v8h-2.66V94.49h2.6v1.43a4.41,4.41,0,0,1,3.51-1.59,4.08,4.08,0,0,1,3.15,1.25Z"/></svg>