<svg id="Layer_1" data-name="Layer 1" xmlns="http://www.w3.org/2000/svg" viewBox="0 0 200 200"><defs><style>.cls-1{fill:#fff;}.cls-2{fill:#7c7c81;}.cls-3{fill:#f53e5b;}</style></defs><title>semi_icon</title><rect class="cls-1" x="1.92" y="71.78" width="196.58" height="57.35" rx="17.9"/><path class="cls-2" d="M180.6,72.28A17.43,17.43,0,0,1,198,89.68v21.56a17.43,17.43,0,0,1-17.4,17.4H19.82a17.43,17.43,0,0,1-17.4-17.4V89.68a17.43,17.43,0,0,1,17.4-17.4H180.6m0-1H19.82a18.4,18.4,0,0,0-18.4,18.4v21.56a18.4,18.4,0,0,0,18.4,18.4H180.6a18.4,18.4,0,0,0,18.4-18.4V89.68a18.4,18.4,0,0,0-18.4-18.4Z"/><path class="cls-3" d="M56.25,111.83c-3.15,0-6.24-1.93-6.24-7.17s3.09-7.14,6.24-7.14a5.77,5.77,0,0,1,4.61,2l-1.94,1.88A3.23,3.23,0,0,0,56.25,100a3.16,3.16,0,0,0-2.6,1.24,5.2,5.2,0,0,0-.82,3.39,5.3,5.3,0,0,0,.82,3.42,3.16,3.16,0,0,0,2.6,1.24A3.26,3.26,0,0,0,58.92,108l1.94,1.85A5.79,5.79,0,0,1,56.25,111.83Z"/><path class="cls-3" d="M76,111.67V110.4a4.61,4.61,0,0,1-3.73,1.43,4.91,4.91,0,0,1-3.75-1.27,4.26,4.26,0,0,1-1.1-3c0-2.35,1.62-4,4.82-4h3.7v-1c0-1.77-.88-2.63-3.06-2.63a3.26,3.26,0,0,0-3.06,1.36l-1.85-1.74c1.32-1.55,2.7-2,5-2,3.83,0,5.77,1.62,5.77,4.79v9.36Zm-.06-6.18H72.61c-1.66,0-2.51.74-2.51,2s.8,2,2.56,2a3.36,3.36,0,0,0,2.62-.8,2.8,2.8,0,0,0,.61-2.07Z"/><path class="cls-3" d="M96,111.67v-8.53C96,101,94.73,100,93.16,100a2.78,2.78,0,0,0-2.9,3.11v8.53H87.45v-14h2.76v1.41a5,5,0,0,1,3.72-1.57,4.84,4.84,0,0,1,3.45,1.26,5.14,5.14,0,0,1,1.41,4v8.94Z"/><path class="cls-3" d="M113.05,111.83c-3.15,0-6.24-1.93-6.24-7.17s3.09-7.14,6.24-7.14a5.74,5.74,0,0,1,4.6,2l-1.93,1.88a3.23,3.23,0,0,0-2.67-1.32,3.13,3.13,0,0,0-2.59,1.24,5.14,5.14,0,0,0-.83,3.39,5.23,5.23,0,0,0,.83,3.42,3.13,3.13,0,0,0,2.59,1.24,3.26,3.26,0,0,0,2.67-1.32l1.93,1.85A5.76,5.76,0,0,1,113.05,111.83Z"/><path class="cls-3" d="M126.89,105.49c0,2.4,1.27,3.91,3.56,3.91a4.21,4.21,0,0,0,3.4-1.43l1.79,1.68a6.56,6.56,0,0,1-5.24,2.18c-3.51,0-6.29-1.85-6.29-7.17,0-4.52,2.34-7.14,5.93-7.14,3.75,0,5.93,2.75,5.93,6.73v1.24Zm5.91-3.86A2.89,2.89,0,0,0,130,99.86a2.92,2.92,0,0,0-2.79,1.77,4.5,4.5,0,0,0-.36,1.9h6.29A4.35,4.35,0,0,0,132.8,101.63Z"/><path class="cls-3" d="M147.86,111.67A3.57,3.57,0,0,1,144,107.8V92h2.82v15.61c0,1.07.38,1.63,1.51,1.63h1.25v2.4Z"/></svg>