<svg id="Layer_1" data-name="Layer 1" xmlns="http://www.w3.org/2000/svg" viewBox="0 0 200 200"><defs><style>.cls-1{fill:#f53e5b;}.cls-2{fill:#fff;}</style></defs><title>semi_icon</title><path class="cls-1" d="M162.53,148.32a82.8,82.8,0,0,0,27.38-49.25,64.73,64.73,0,0,0-.82-28.36c-8.3-38.7-45.19-68-89.31-68C49.56,2.75,8.71,40.64,8.71,87.22s40.85,84.49,91.07,84.49a97.75,97.75,0,0,0,20.46-2.24l51,27a6.11,6.11,0,0,0,2.85.71,5.9,5.9,0,0,0,4.18-1.71,5,5,0,0,0,.53-6.61C173.83,182.16,161.68,162.31,162.53,148.32ZM76.8,158l-1.53-.44Zm-3.25-1c-.76-.24-1.5-.5-2.25-.76C72.05,156.46,72.79,156.72,73.55,157Zm-4.13-1.45-1.1-.43Z"/><rect class="cls-2" x="34.35" y="59.94" width="104.89" height="13.8" rx="6.17"/><rect class="cls-2" x="34.35" y="82.02" width="77.29" height="13.8" rx="5.3"/><rect class="cls-2" x="34.35" y="104.11" width="131.11" height="13.8" rx="6.9"/></svg>