<svg id="Layer_1" data-name="Layer 1" xmlns="http://www.w3.org/2000/svg" viewBox="0 0 200 200"><defs><style>.cls-1{fill:#f53e5b;}.cls-2{fill:#fff;}</style></defs><title>semi_icon</title><rect class="cls-1" x="1.38" y="71.08" width="197.62" height="58.36" rx="18.4"/><path class="cls-2" d="M85.43,103.44A4.78,4.78,0,0,1,82,104.68a4.36,4.36,0,0,1-3.67-1.6v7.09H75.55V90.53h2.76V92A4.31,4.31,0,0,1,82,90.36a4.84,4.84,0,0,1,3.42,1.24C86.84,93,87,95.38,87,97.51S86.84,102,85.43,103.44ZM81.29,92.87c-2.54,0-2.92,2.15-2.92,4.64s.38,4.66,2.92,4.66,2.9-2.18,2.9-4.66S83.83,92.87,81.29,92.87Z"/><path class="cls-2" d="M102.76,104.51v-1.26A4.61,4.61,0,0,1,99,104.68a4.94,4.94,0,0,1-3.75-1.27,4.27,4.27,0,0,1-1.1-3c0-2.34,1.63-4,4.83-4h3.69v-1c0-1.76-.88-2.62-3.06-2.62a3.28,3.28,0,0,0-3.06,1.35l-1.85-1.74c1.32-1.54,2.7-2,5-2,3.84,0,5.77,1.63,5.77,4.8v9.35Zm-.06-6.18H99.42c-1.66,0-2.51.75-2.51,2s.8,2,2.56,2a3.35,3.35,0,0,0,2.63-.8,2.8,2.8,0,0,0,.6-2.06Z"/><path class="cls-2" d="M118.65,107.3a4.63,4.63,0,0,1-1,1.74,3.88,3.88,0,0,1-2.87,1h-1.13v-2.54h.72c1.18,0,1.6-.36,2-1.49l.77-2.18-4.88-13.32h3l3.34,9.85,3.25-9.85h3Z"/></svg>