<svg id="Layer_1" data-name="Layer 1" xmlns="http://www.w3.org/2000/svg" viewBox="0 0 200 200"><defs><style>.cls-1{fill:#f53e5b;}.cls-2{fill:#fff;}</style></defs><title>semi_icon</title><rect class="cls-1" x="1.45" y="69.06" width="197.55" height="58.35" rx="18.4"/><path class="cls-2" d="M57.06,105.23v-1.41a5,5,0,0,1-3.73,1.57,4.83,4.83,0,0,1-3.44-1.27,5.12,5.12,0,0,1-1.41-3.94V91.24h2.81v8.52c0,2.18,1.24,3.12,2.82,3.12A2.78,2.78,0,0,0,57,99.76V91.24h2.82v14Z"/><path class="cls-2" d="M78.57,104.15a4.76,4.76,0,0,1-3.39,1.24,4.36,4.36,0,0,1-3.67-1.6v7.09H68.7V91.24h2.75v1.49a4.3,4.3,0,0,1,3.7-1.65,4.79,4.79,0,0,1,3.42,1.24c1.41,1.4,1.57,3.78,1.57,5.9S80,102.74,78.57,104.15ZM74.43,93.59c-2.53,0-2.92,2.15-2.92,4.63s.39,4.66,2.92,4.66,2.9-2.18,2.9-4.66S77,93.59,74.43,93.59Z"/><path class="cls-2" d="M96.39,105.23v-1.49a4.33,4.33,0,0,1-3.7,1.65,4.87,4.87,0,0,1-3.42-1.24c-1.4-1.41-1.57-3.81-1.57-5.93s.17-4.5,1.57-5.9a4.76,4.76,0,0,1,3.4-1.24,4.29,4.29,0,0,1,3.66,1.57V85.59h2.82v19.64Zm-3-11.64c-2.54,0-2.93,2.15-2.93,4.63s.39,4.66,2.93,4.66,2.89-2.18,2.89-4.66S96,93.59,93.44,93.59Z"/><path class="cls-2" d="M115.56,105.23V104a4.61,4.61,0,0,1-3.73,1.43,4.94,4.94,0,0,1-3.75-1.27,4.31,4.31,0,0,1-1.1-3c0-2.35,1.63-4,4.83-4h3.69v-1c0-1.77-.88-2.63-3.06-2.63a3.27,3.27,0,0,0-3.06,1.36l-1.85-1.74c1.33-1.55,2.71-2,5-2,3.84,0,5.77,1.62,5.77,4.79v9.36Zm-.06-6.18h-3.28c-1.65,0-2.51.74-2.51,2s.8,2,2.57,2a3.38,3.38,0,0,0,2.62-.8,2.85,2.85,0,0,0,.6-2.07Z"/><path class="cls-2" d="M131.22,105.23a3.64,3.64,0,0,1-3.83-3.89v-7.7h-1.6V91.49h1.6V87.24h2.81v4.25h2.71v2.15H130.2v7.56a1.43,1.43,0,0,0,1.55,1.63h1.16v2.4Z"/><path class="cls-2" d="M142.89,99.05c0,2.4,1.27,3.91,3.56,3.91a4.18,4.18,0,0,0,3.39-1.43l1.8,1.68a6.56,6.56,0,0,1-5.24,2.18c-3.51,0-6.29-1.85-6.29-7.17,0-4.52,2.34-7.14,5.93-7.14,3.75,0,5.93,2.75,5.93,6.73v1.24Zm5.91-3.86a3.06,3.06,0,0,0-5.55,0,4.5,4.5,0,0,0-.36,1.9h6.29A4.49,4.49,0,0,0,148.8,95.19Z"/></svg>