<svg id="Layer_1" data-name="Layer 1" xmlns="http://www.w3.org/2000/svg" viewBox="0 0 200 200"><defs><style>.cls-1{fill:#f53e5b;}.cls-2{fill:#fff;}</style></defs><title>semi_icon</title><circle class="cls-1" cx="100.24" cy="100.41" r="97.76"/><path class="cls-2" d="M99.42,98a31.34,31.34,0,0,0,31.35-31.35A31.34,31.34,0,0,0,99.42,35.32,31.36,31.36,0,0,0,68.06,66.67,31.36,31.36,0,0,0,99.42,98Z"/><path class="cls-2" d="M154.28,135.42a76.81,76.81,0,0,0-1.06-8.23,62.55,62.55,0,0,0-2-8.27,40.41,40.41,0,0,0-3.4-7.71,29.06,29.06,0,0,0-5.13-6.68,22.45,22.45,0,0,0-7.36-4.63,25.43,25.43,0,0,0-9.4-1.7c-1.33,0-2.62.54-5.1,2.16-1.52,1-3.31,2.15-5.31,3.42a30.06,30.06,0,0,1-6.86,3,26.65,26.65,0,0,1-16.81,0,30.06,30.06,0,0,1-6.86-3c-2-1.26-3.77-2.41-5.32-3.42-2.47-1.62-3.76-2.16-5.09-2.16a25.43,25.43,0,0,0-9.4,1.7,22.6,22.6,0,0,0-7.37,4.63,29.31,29.31,0,0,0-5.12,6.68,41.05,41.05,0,0,0-3.4,7.71,66.29,66.29,0,0,0-2,8.27,76.81,76.81,0,0,0-1.06,8.23c-.17,2.49-.26,5.08-.26,7.69,0,6.79,2.16,12.29,6.42,16.35s9.78,6,16.55,6h62.68c6.77,0,12.33-2,16.54-6s6.42-9.55,6.42-16.35C154.54,140.48,154.45,137.9,154.28,135.42Z"/></svg>